<svg xmlns="http://www.w3.org/2000/svg" viewBox="0 0 64 80" width="64" height="80">
  <!-- Shield shape -->
  <path d="M32 2C14 2 2 12 2 12v30c0 18 30 34 30 34s30-16 30-34V12S50 2 32 2z" fill="#FFD700" stroke="#c9a800" stroke-width="1.5"/>
  <!-- Tryzub (Ukrainian trident) — blue on yellow -->
  <g fill="#0057B8">
    <!-- Central prong shaft -->
    <rect x="29" y="16" width="6" height="30" rx="1"/>
    <!-- Central prong top fork -->
    <polygon points="32,8 27,17 30,17 30,15 34,15 34,17 37,17"/>
    <!-- Left prong -->
    <path d="M17 46V31c0-8 5-14 12-16v5c-4 1.5-7 5.5-7 11v15z"/>
    <!-- Left prong top hook -->
    <path d="M29 16c-5-2-10 0-12 4s-1 8 2 9l2-4c-1-1-1-3 1-5s5-2 7 0z"/>
    <!-- Right prong -->
    <path d="M47 46V31c0-8-5-14-12-16v5c4 1.5 7 5.5 7 11v15z"/>
    <!-- Right prong top hook -->
    <path d="M35 16c5-2 10 0 12 4s1 8-2 9l-2-4c1-1 1-3-1-5s-5-2-7 0z"/>
    <!-- Base platform -->
    <path d="M14 46h36v4c0 2-8 5-18 6-10-1-18-4-18-6z"/>
  </g>
</svg>
