<svg xmlns="http://www.w3.org/2000/svg" viewBox="0 0 64 64" width="64" height="64">
  <!-- Yellow shield background -->
  <path d="M32 2 C16 2 4 10 4 10 L4 34 C4 48 32 62 32 62 C32 62 60 48 60 34 L60 10 C60 10 48 2 32 2Z" fill="#FFD700" stroke="#0057B8" stroke-width="1.5"/>
  <!-- Ukrainian Tryzub (trident) in blue -->
  <g fill="#0057B8">
    <!-- Central prong -->
    <path d="M30 12 L30 38 C30 40 32 42 32 42 C32 42 34 40 34 38 L34 12 C34 10 32 9 32 9 C32 9 30 10 30 12Z"/>
    <!-- Central prong top fork -->
    <path d="M29 14 L27 11 C26 10 27 9 28 9.5 L32 13 L36 9.5 C37 9 38 10 37 11 L35 14"/>
    <!-- Left prong -->
    <path d="M20 18 C20 16 22 14 24 14 L24 34 C24 36 22 37 20 36 L20 18Z"/>
    <!-- Left prong hook -->
    <path d="M18 22 C16 20 16 17 18 15 C20 13 22 14 24 14 L22 16 C20 16 19 18 20 20 L18 22Z"/>
    <!-- Right prong -->
    <path d="M44 18 C44 16 42 14 40 14 L40 34 C40 36 42 37 44 36 L44 18Z"/>
    <!-- Right prong hook -->
    <path d="M46 22 C48 20 48 17 46 15 C44 13 42 14 40 14 L42 16 C44 16 45 18 44 20 L46 22Z"/>
    <!-- Base platform -->
    <path d="M22 40 L42 40 L42 43 C42 45 38 48 32 50 C26 48 22 45 22 43 L22 40Z"/>
    <!-- Left arm connector -->
    <path d="M24 34 L24 40 L28 40 L28 38 C28 36 26 35 24 34Z"/>
    <!-- Right arm connector -->
    <path d="M40 34 L40 40 L36 40 L36 38 C36 36 38 35 40 34Z"/>
  </g>
</svg>
