<svg xmlns="http://www.w3.org/2000/svg" viewBox="0 0 64 64" width="64" height="64">
  <!-- Shield -->
  <path d="M32 3C17 3 5 10 5 10V33C5 47 32 60 32 60C32 60 59 47 59 33V10C59 10 47 3 32 3Z"
        fill="#FFD700" stroke="#0057B8" stroke-width="2.5" stroke-linejoin="round"/>
  <!-- Tryzub -->
  <g fill="#0057B8">
    <!-- Central prong shaft -->
    <rect x="30" y="18" width="4" height="26" rx="1"/>
    <!-- Central prong forked top -->
    <path d="M32 10L28 17H30V20H34V17H36Z"/>
    <!-- Left crossbar from center -->
    <path d="M26 17L30 17V20H26Z"/>
    <!-- Right crossbar from center -->
    <path d="M34 17H38L34 20Z"/>
    <!-- Left prong -->
    <path d="M14 28C14 21 18 15 24 13L26 17C21 18 18 23 18 28V44H14Z"/>
    <!-- Left prong curl/hook at top -->
    <path d="M24 13C21 12 17 13 15 16C13 19 14 23 14 25L18 25C18 22 18 19 20 17C22 15 24 14 26 17L24 13Z"/>
    <!-- Right prong -->
    <path d="M50 28C50 21 46 15 40 13L38 17C43 18 46 23 46 28V44H50Z"/>
    <!-- Right prong curl/hook at top -->
    <path d="M40 13C43 12 47 13 49 16C51 19 50 23 50 25L46 25C46 22 46 19 44 17C42 15 40 14 38 17L40 13Z"/>
    <!-- Base platform -->
    <path d="M14 44H50V47C50 50 42 53 32 55C22 53 14 50 14 47Z"/>
    <!-- Left connector to base -->
    <rect x="26" y="40" width="4" height="4"/>
    <!-- Right connector to base -->
    <rect x="34" y="40" width="4" height="4"/>
  </g>
</svg>
