<svg xmlns="http://www.w3.org/2000/svg" viewBox="0 0 64 64" width="64" height="64">
  <!-- Shield -->
  <path d="M32 1C15 1 3 9 3 9v26c0 16 29 28 29 28s29-12 29-28V9S49 1 32 1z" fill="#005BBB" stroke="#003d82" stroke-width="1"/>
  <!-- Tryzub (Ukrainian trident) -->
  <g fill="#FFD700">
    <!-- Central prong shaft -->
    <rect x="29" y="15" width="6" height="31"/>
    <!-- Central prong top fork -->
    <polygon points="32,7 27,15 30,15 30,14 34,14 34,15 37,15"/>
    <!-- Left prong (curves from base up and outward) -->
    <path d="M17 46V30c0-7 5-13 12-15v5c-4 1-7 5-7 10v16z"/>
    <!-- Left prong top hook (curls outward to the left) -->
    <path d="M29 15c-5-2-10 0-12 4s-1 8 2 9l2-4c-1-1-1-3 1-5s5-2 7 0z"/>
    <!-- Right prong (curves from base up and outward) -->
    <path d="M47 46V30c0-7-5-13-12-15v5c4 1 7 5 7 10v16z"/>
    <!-- Right prong top hook (curls outward to the right) -->
    <path d="M35 15c5-2 10 0 12 4s1 8-2 9l-2-4c1-1 1-3-1-5s-5-2-7 0z"/>
    <!-- Base platform -->
    <path d="M14 46h36v4c0 2-8 5-18 6-10-1-18-4-18-6z"/>
  </g>
</svg>
